HIERARCHY
ROOT Pelvis
{
	OFFSET 0.000000 0.000000 0.000000
	CHANNELS 6 Xposition Yposition Zposition Xrotation Yrotation Zrotation
	JOINT LeftUpLeg_virtual
	{
		OFFSET 0.000000 0.000000 0.000000
		CHANNELS 3 Xrotation Yrotation Zrotation
		JOINT LeftUpLeg
		{
			OFFSET 8.479700 -4.795502 -0.379100
			CHANNELS 3 Xrotation Yrotation Zrotation
			JOINT LeftLeg
			{
				OFFSET 0.024144 -32.555107 0.112900
				CHANNELS 3 Xrotation Yrotation Zrotation
				JOINT LeftFoot
				{
					OFFSET -0.024144 -32.638630 -3.012600
					CHANNELS 3 Xrotation Yrotation Zrotation
					JOINT LeftToeBase
					{
						OFFSET 0.970200 -13.225400 11.864200
						CHANNELS 3 Xrotation Yrotation Zrotation
						End Site
						{
							OFFSET 0 0 0
						}
					}
				}
			}
		}
	}
	JOINT RightUpLeg_virtual
	{
		OFFSET 0.000000 0.000000 0.000000
		CHANNELS 3 Xrotation Yrotation Zrotation
		JOINT RightUpLeg
		{
			OFFSET -8.479700 -4.795502 -0.379100
			CHANNELS 3 Xrotation Yrotation Zrotation
			JOINT RightLeg
			{
				OFFSET -0.023144 -32.555092 0.112900
				CHANNELS 3 Xrotation Yrotation Zrotation
				JOINT RightFoot
				{
					OFFSET 0.023144 -32.638641 -3.012700
					CHANNELS 3 Xrotation Yrotation Zrotation
					JOINT RightToeBase
					{
						OFFSET -0.970200 -13.225400 11.864200
						CHANNELS 3 Xrotation Yrotation Zrotation
						End Site
						{
							OFFSET 0 0 0
						}
					}
				}
			}
		}
	}
	JOINT Hips_virtual
	{
		OFFSET 0.000000 0.000000 0.000000
		CHANNELS 3 Xrotation Yrotation Zrotation
		JOINT Hips
		{
			OFFSET -0.000000 -0.000000 -0.000000
			CHANNELS 3 Xrotation Yrotation Zrotation
			JOINT Spine
			{
				OFFSET 0.000000 7.722000 1.166200
				CHANNELS 3 Xrotation Yrotation Zrotation
				JOINT Spine1
				{
					OFFSET 0.000000 12.024101 0.248800
					CHANNELS 3 Xrotation Yrotation Zrotation
					JOINT Spine2
					{
						OFFSET 0.000000 11.502998 -0.491200
						CHANNELS 3 Xrotation Yrotation Zrotation
						JOINT Neck_virtual
						{
							OFFSET 0.000000 0.000000 0.000000
							CHANNELS 3 Xrotation Yrotation Zrotation
							JOINT Neck
							{
								OFFSET 0.000000 18.430702 -3.123100
								CHANNELS 3 Xrotation Yrotation Zrotation
								JOINT Head
								{
									OFFSET 0.000000 9.051102 1.034000
									CHANNELS 3 Xrotation Yrotation Zrotation
									End Site
									{
										OFFSET 0 0 0
									}
								}
							}
						}
						JOINT LeftShoulder_virtual
						{
							OFFSET 0.000000 0.000000 0.000000
							CHANNELS 3 Xrotation Yrotation Zrotation
							JOINT LeftShoulder
							{
								OFFSET 6.197800 13.665199 -4.064700
								CHANNELS 3 Xrotation Yrotation Zrotation
								JOINT LeftArm
								{
									OFFSET 7.778100 -0.187103 -1.709300
									CHANNELS 3 Xrotation Yrotation Zrotation
									JOINT LeftForeArm
									{
										OFFSET 22.049376 0.000000 0.000000
										CHANNELS 3 Xrotation Yrotation Zrotation
										JOINT LeftHand
										{
											OFFSET 23.009392 0.000000 0.000000
											CHANNELS 3 Xrotation Yrotation Zrotation
											End Site
											{
												OFFSET 0 0 0
											}
										}
									}
								}
							}
						}
						JOINT RightShoulder_virtual
						{
							OFFSET 0.000000 0.000000 0.000000
							CHANNELS 3 Xrotation Yrotation Zrotation
							JOINT RightShoulder
							{
								OFFSET -6.197800 13.665199 -4.064700
								CHANNELS 3 Xrotation Yrotation Zrotation
								JOINT RightArm
								{
									OFFSET -7.778100 -0.187103 -1.709300
									CHANNELS 3 Xrotation Yrotation Zrotation
									JOINT RightForeArm
									{
										OFFSET -22.049376 0.000000 0.000000
										CHANNELS 3 Xrotation Yrotation Zrotation
										JOINT RightHand
										{
											OFFSET -23.009392 0.000000 0.000000
											CHANNELS 3 Xrotation Yrotation Zrotation
											End Site
											{
												OFFSET 0 0 0
											}
										}
									}
								}
							}
						}
					}
				}
			}
		}
	}
}
MOTION
Frames: 5
Frame Time: 0.03333333
0.230851 48.133774 3.654503 0.000000 0.000000 0.000000 10.252886 1.253773 2.040325 -101.904032 -6.896839 9.078247 85.934257 7.638686 0.205328 7.245061 -7.264244 -7.801442 0.000000 0.000000 0.000000 10.252886 1.253773 2.040325 -103.165479 11.096167 -7.219866 86.627358 -6.582021 -1.835634 8.309660 0.307751 9.223587 0.000000 0.000000 0.000000 10.252886 1.253773 2.040325 0.000000 0.000000 0.000000 6.860167 -1.814880 -1.468222 12.577068 -1.034805 -1.095898 0.000000 0.000000 0.000000 12.570156 -1.077110 -1.099539 -0.427489 -0.653576 -0.369724 0.000000 0.000000 0.000000 12.570156 -1.077110 -1.099539 2.038146 -12.501282 5.547275 -60.008485 -29.861693 -11.556443 -179.999964 -65.698770 -179.999964 0.000000 0.000000 0.000000 12.570156 -1.077110 -1.099539 1.433084 10.850710 -3.496002 -73.306863 34.141240 27.922104 -179.999978 62.742166 179.999964 0.000000 0.000000 0.000000 
0.244065 48.081924 3.605373 0.000000 0.000000 0.000000 10.522846 1.358167 2.042507 -102.280437 -6.848311 8.953171 85.843436 7.672667 0.206459 7.423529 -7.275436 -7.690484 0.000000 0.000000 0.000000 10.522846 1.358167 2.042507 -103.500254 11.216060 -7.217929 86.577395 -6.674948 -1.836120 8.455625 0.326360 9.249557 0.000000 0.000000 0.000000 10.522846 1.358167 2.042507 -0.000001 0.000000 0.000000 7.085981 -1.778320 -1.465410 12.767367 -1.020628 -1.140127 0.000000 0.000000 0.000000 12.760492 -1.062331 -1.143888 1.301026 -0.746535 -0.517728 0.000000 0.000000 0.000000 12.760492 -1.062331 -1.143888 2.068313 -12.394299 6.151575 -58.624456 -28.929888 -12.183157 180.000005 -65.051992 179.999991 0.000000 0.000000 0.000000 12.760492 -1.062331 -1.143888 1.461463 11.134545 -3.330571 -71.860502 33.821666 27.199874 -180.000005 62.565523 -180.000005 0.000000 0.000000 0.000000 
0.263674 48.031860 3.583815 0.000000 0.000000 0.000000 10.812133 1.466131 2.072121 -102.655551 -6.781434 8.818784 85.802817 7.719155 0.206583 7.533622 -7.282210 -7.649837 0.000000 0.000000 0.000000 10.812133 1.466131 2.072121 -103.851872 11.380995 -7.240643 86.581179 -6.731170 -1.836519 8.549004 0.340645 9.294071 0.000000 0.000000 0.000000 10.812133 1.466131 2.072121 0.000001 0.000000 0.000000 7.323045 -1.735455 -1.468700 12.972730 -0.981566 -1.186087 0.000000 0.000000 0.000000 12.966026 -1.022760 -1.189410 3.122171 -0.859578 -0.692142 0.000000 0.000000 0.000000 12.966026 -1.022760 -1.189410 2.114941 -12.310449 6.918392 -56.643869 -27.956565 -13.096901 -180.000005 -64.332309 179.999991 0.000000 0.000000 0.000000 12.966026 -1.022760 -1.189410 1.487709 11.465027 -3.085985 -69.923099 33.437895 26.381901 -179.999991 62.384038 -179.999991 0.000000 0.000000 0.000000 
0.282349 47.999130 3.585722 0.000000 0.000000 0.000000 11.091109 1.566719 2.108809 -102.975067 -6.715040 8.700874 85.791848 7.762911 0.205619 7.572562 -7.284042 -7.685523 0.000000 0.000000 0.000000 11.091109 1.566719 2.108809 -104.161785 11.548632 -7.275126 86.613561 -6.762583 -1.836417 8.581883 0.348307 9.362932 0.000000 0.000000 0.000000 11.091109 1.566719 2.108809 0.000000 0.000000 0.000000 7.558678 -1.688786 -1.476605 13.167894 -0.921942 -1.227742 0.000000 0.000000 0.000000 13.161514 -0.962647 -1.229827 4.847743 -0.977132 -0.865298 0.000000 0.000000 0.000000 13.161514 -0.962647 -1.229827 2.167039 -12.215280 7.794457 -54.283232 -27.085347 -14.223971 -180.000005 -63.627542 180.000005 0.000000 0.000000 0.000000 13.161514 -0.962647 -1.229827 1.506033 11.775372 -2.798577 -67.693609 33.040337 25.501046 179.999991 62.236752 180.000005 0.000000 0.000000 0.000000 
0.293497 47.994965 3.603010 0.000000 0.000000 0.000000 11.335280 1.649768 2.130155 -103.206535 -6.666808 8.617087 85.779547 7.784269 0.204240 7.561854 -7.282420 -7.758391 0.000000 0.000000 0.000000 11.335280 1.649768 2.130155 -104.384422 11.683344 -7.311174 86.640089 -6.784593 -1.836016 8.565646 0.350460 9.444406 0.000000 0.000000 0.000000 11.335280 1.649768 2.130155 0.000000 0.000000 0.000000 7.779693 -1.642210 -1.486728 13.326672 -0.850600 -1.259117 0.000000 0.000000 0.000000 13.320781 -0.890772 -1.259121 6.302605 -1.082771 -1.010007 0.000000 0.000000 0.000000 13.320781 -0.890772 -1.259121 2.212184 -12.088714 8.699936 -51.845866 -26.430322 -15.426351 -179.999991 -63.026363 -180.000005 0.000000 0.000000 0.000000 13.320781 -0.890772 -1.259121 1.514849 12.012158 -2.520094 -65.445534 32.679624 24.613000 -179.999991 62.149326 179.999991 0.000000 0.000000 0.000000 
